<?xml version="1.0" encoding="utf-8"?>
<!-- Generator: Adobe Illustrator 25.2.1, SVG Export Plug-In . SVG Version: 6.00 Build 0)  -->
<svg version="1.1" id="Layer_1" xmlns="http://www.w3.org/2000/svg" xmlns:xlink="http://www.w3.org/1999/xlink" x="0px" y="0px"
	 viewBox="0 0 3000 3000" style="enable-background:new 0 0 3000 3000;" xml:space="preserve">
<style type="text/css">
	.st0{fill:#CFE7C6;}
	.st1{fill:#86C7BB;}
	.st2{fill:#D0E7C7;}
</style>
<g>
	<path class="st0" d="M34.47,2556.91l0-2113.81c0-16.54,24.29-17.92,26.17-1.49c23.17,202.14,48.13,404.06,79.55,605.01
		c17.77,113.64,38.13,228.68,87.56,332.04c108.86,227.64,345.33,366.72,586.01,425.7c240.68,58.98,491.33,50.91,738.57,61.92
		c240.41,10.7,509.96,56.88,648.72,258.25c65.26,94.7,95.58,217.22,184.04,289.51c67.58,55.24,157.22,70.87,242.63,84.65
		c93.34,15.07,209.57,30.13,326.36,45.2c16.28,2.1,14.74,26.15-1.68,26.15l-2904.8,0C40.35,2570.04,34.47,2564.16,34.47,2556.91z"/>
</g>
</svg>
